<svg xmlns="http://www.w3.org/2000/svg" xmlns:xlink="http://www.w3.org/1999/xlink" width="600" zoomAndPan="magnify" viewBox="0 0 450 149.999998" height="200" preserveAspectRatio="xMidYMid meet" version="1.0"><defs><filter x="0%" y="0%" width="100%" height="100%" id="d483f3e673"><feColorMatrix values="0 0 0 0 1 0 0 0 0 1 0 0 0 0 1 0 0 0 1 0" color-interpolation-filters="sRGB"/></filter><g/><clipPath id="371acde1df"><path d="M 11.296875 4.503906 L 141.796875 4.503906 L 141.796875 135 L 11.296875 135 Z M 11.296875 4.503906 " clip-rule="nonzero"/></clipPath><mask id="2a22d5fefc"><g filter="url(#d483f3e673)"><rect x="-45" width="540" fill="#000000" y="-15" height="179.999997" fill-opacity="0.349"/></g></mask><clipPath id="559a509c01"><path d="M 0 0.503906 L 130.5 0.503906 L 130.5 131 L 0 131 Z M 0 0.503906 " clip-rule="nonzero"/></clipPath><clipPath id="ce23906d09"><rect x="0" width="131" y="0" height="132"/></clipPath><mask id="8898da66d2"><g filter="url(#d483f3e673)"><rect x="-45" width="540" fill="#000000" y="-15" height="179.999997" fill-opacity="0.1569"/></g></mask><clipPath id="6dc47a7cf3"><rect x="0" width="255" y="0" height="47"/></clipPath></defs><path fill="#000000" d="M 85.867188 58.101562 C 85.867188 58.40625 85.839844 58.710938 85.777344 59.011719 C 85.71875 59.3125 85.628906 59.601562 85.511719 59.886719 C 85.394531 60.167969 85.253906 60.4375 85.082031 60.691406 C 84.914062 60.945312 84.71875 61.179688 84.503906 61.398438 C 84.285156 61.613281 84.050781 61.808594 83.796875 61.976562 C 83.542969 62.148438 83.273438 62.289062 82.992188 62.40625 C 82.707031 62.523438 82.417969 62.613281 82.117188 62.671875 C 81.816406 62.734375 81.511719 62.761719 81.207031 62.761719 C 80.902344 62.761719 80.597656 62.734375 80.296875 62.671875 C 79.996094 62.613281 79.707031 62.523438 79.421875 62.40625 C 79.140625 62.289062 78.871094 62.148438 78.617188 61.976562 C 78.363281 61.808594 78.128906 61.613281 77.910156 61.398438 C 77.695312 61.179688 77.503906 60.945312 77.332031 60.691406 C 77.164062 60.4375 77.019531 60.167969 76.902344 59.886719 C 76.785156 59.601562 76.695312 59.3125 76.636719 59.011719 C 76.578125 58.710938 76.546875 58.40625 76.546875 58.101562 C 76.546875 57.796875 76.578125 57.492188 76.636719 57.191406 C 76.695312 56.894531 76.785156 56.601562 76.902344 56.320312 C 77.019531 56.035156 77.164062 55.765625 77.332031 55.511719 C 77.503906 55.257812 77.695312 55.023438 77.910156 54.804688 C 78.128906 54.589844 78.363281 54.398438 78.617188 54.226562 C 78.871094 54.058594 79.140625 53.914062 79.421875 53.796875 C 79.707031 53.679688 79.996094 53.589844 80.296875 53.53125 C 80.597656 53.472656 80.902344 53.441406 81.207031 53.441406 C 81.511719 53.441406 81.816406 53.472656 82.117188 53.53125 C 82.417969 53.589844 82.707031 53.679688 82.992188 53.796875 C 83.273438 53.914062 83.542969 54.058594 83.796875 54.226562 C 84.050781 54.398438 84.285156 54.589844 84.503906 54.804688 C 84.71875 55.023438 84.914062 55.257812 85.082031 55.511719 C 85.253906 55.765625 85.394531 56.035156 85.511719 56.320312 C 85.628906 56.601562 85.71875 56.894531 85.777344 57.191406 C 85.839844 57.492188 85.867188 57.796875 85.867188 58.101562 Z M 85.867188 58.101562 " fill-opacity="1" fill-rule="nonzero"/><g clip-path="url(#371acde1df)"><path fill="#000000" d="M 137.136719 90.726562 C 135.363281 90.726562 133.851562 91.730469 133.058594 93.175781 C 132.871094 93.128906 132.683594 93.058594 132.476562 93.058594 L 126.742188 93.058594 L 122.78125 87.113281 C 122.339844 86.460938 121.617188 86.066406 120.847656 86.066406 L 116.1875 86.066406 L 116.1875 72.085938 L 127.835938 72.085938 C 128.046875 72.085938 128.234375 72.015625 128.421875 71.96875 C 129.210938 73.414062 130.726562 74.414062 132.5 74.414062 C 135.0625 74.414062 137.160156 72.316406 137.160156 69.753906 C 137.160156 67.191406 135.0625 65.09375 132.5 65.09375 C 130.726562 65.09375 129.210938 66.09375 128.421875 67.539062 C 128.234375 67.492188 128.046875 67.421875 127.835938 67.421875 L 116.1875 67.421875 L 116.1875 53.441406 L 120.847656 53.441406 C 121.617188 53.441406 122.363281 53.046875 122.78125 52.394531 L 126.742188 46.449219 L 132.476562 46.449219 C 132.683594 46.449219 132.871094 46.378906 133.058594 46.332031 C 133.851562 47.777344 135.363281 48.78125 137.136719 48.78125 C 139.699219 48.78125 141.796875 46.683594 141.796875 44.121094 C 141.796875 41.554688 139.699219 39.460938 137.136719 39.460938 C 135.363281 39.460938 133.851562 40.460938 133.058594 41.90625 C 132.871094 41.859375 132.683594 41.789062 132.476562 41.789062 L 125.484375 41.789062 C 124.714844 41.789062 123.96875 42.1875 123.550781 42.839844 L 119.589844 48.78125 L 116.1875 48.78125 L 116.1875 32.46875 C 116.1875 31.1875 115.136719 30.136719 113.855469 30.136719 L 97.542969 30.136719 L 97.542969 26.734375 L 103.484375 22.773438 C 104.136719 22.332031 104.535156 21.609375 104.535156 20.839844 L 104.535156 13.847656 C 104.535156 13.640625 104.464844 13.453125 104.417969 13.265625 C 105.863281 12.472656 106.863281 10.960938 106.863281 9.1875 C 106.863281 6.625 104.765625 4.527344 102.203125 4.527344 C 99.640625 4.527344 97.542969 6.625 97.542969 9.1875 C 97.542969 10.960938 98.546875 12.472656 99.988281 13.265625 C 99.945312 13.453125 99.875 13.640625 99.875 13.847656 L 99.875 19.582031 L 93.929688 23.542969 C 93.277344 23.984375 92.882812 24.707031 92.882812 25.476562 L 92.882812 30.136719 L 78.898438 30.136719 L 78.898438 18.484375 C 78.898438 18.277344 78.832031 18.089844 78.785156 17.902344 C 80.230469 17.109375 81.230469 15.597656 81.230469 13.824219 C 81.230469 11.261719 79.132812 9.164062 76.570312 9.164062 C 74.007812 9.164062 71.910156 11.261719 71.910156 13.824219 C 71.910156 15.597656 72.910156 17.109375 74.355469 17.902344 C 74.308594 18.089844 74.238281 18.277344 74.238281 18.484375 L 74.238281 30.136719 L 60.257812 30.136719 L 60.257812 25.476562 C 60.257812 24.707031 59.859375 23.960938 59.207031 23.542969 L 53.265625 19.582031 L 53.265625 13.847656 C 53.265625 13.640625 53.195312 13.453125 53.148438 13.265625 C 54.59375 12.472656 55.597656 10.960938 55.597656 9.1875 C 55.597656 6.625 53.5 4.527344 50.9375 4.527344 C 48.371094 4.527344 46.273438 6.625 46.273438 9.1875 C 46.273438 10.960938 47.277344 12.472656 48.722656 13.265625 C 48.675781 13.453125 48.605469 13.640625 48.605469 13.847656 L 48.605469 20.839844 C 48.605469 21.609375 49 22.355469 49.65625 22.773438 L 55.597656 26.734375 L 55.597656 30.136719 L 39.285156 30.136719 C 38.003906 30.136719 36.953125 31.1875 36.953125 32.46875 L 36.953125 48.78125 L 33.550781 48.78125 L 29.589844 42.839844 C 29.148438 42.1875 28.425781 41.789062 27.65625 41.789062 L 20.664062 41.789062 C 20.453125 41.789062 20.269531 41.859375 20.082031 41.90625 C 19.289062 40.460938 17.773438 39.460938 16.003906 39.460938 C 13.441406 39.460938 11.34375 41.554688 11.34375 44.121094 C 11.34375 46.683594 13.441406 48.78125 16.003906 48.78125 C 17.773438 48.78125 19.289062 47.777344 20.082031 46.332031 C 20.269531 46.378906 20.453125 46.449219 20.664062 46.449219 L 26.398438 46.449219 L 30.359375 52.394531 C 30.800781 53.046875 31.523438 53.441406 32.292969 53.441406 L 36.953125 53.441406 L 36.953125 67.421875 L 25.300781 67.421875 C 25.09375 67.421875 24.90625 67.492188 24.71875 67.539062 C 23.925781 66.09375 22.414062 65.09375 20.640625 65.09375 C 18.078125 65.09375 15.980469 67.191406 15.980469 69.753906 C 15.980469 72.316406 18.078125 74.414062 20.640625 74.414062 C 22.414062 74.414062 23.925781 73.414062 24.71875 71.96875 C 24.90625 72.015625 25.09375 72.085938 25.300781 72.085938 L 36.953125 72.085938 L 36.953125 86.066406 L 32.292969 86.066406 C 31.523438 86.066406 30.777344 86.460938 30.359375 87.113281 L 26.398438 93.058594 L 20.664062 93.058594 C 20.453125 93.058594 20.269531 93.128906 20.082031 93.175781 C 19.289062 91.730469 17.773438 90.726562 16.003906 90.726562 C 13.441406 90.726562 11.34375 92.824219 11.34375 95.386719 C 11.34375 97.953125 13.441406 100.046875 16.003906 100.046875 C 17.773438 100.046875 19.289062 99.046875 20.082031 97.601562 C 20.269531 97.648438 20.453125 97.71875 20.664062 97.71875 L 27.65625 97.71875 C 28.425781 97.71875 29.171875 97.320312 29.589844 96.667969 L 33.550781 90.726562 L 36.953125 90.726562 L 36.953125 107.039062 C 36.953125 108.320312 38.003906 109.371094 39.285156 109.371094 L 55.597656 109.371094 L 55.597656 112.773438 L 49.65625 116.734375 C 49 117.175781 48.605469 117.898438 48.605469 118.667969 L 48.605469 125.660156 C 48.605469 125.867188 48.675781 126.054688 48.722656 126.242188 C 47.277344 127.035156 46.273438 128.550781 46.273438 130.320312 C 46.273438 132.882812 48.371094 134.980469 50.9375 134.980469 C 53.5 134.980469 55.597656 132.882812 55.597656 130.320312 C 55.597656 128.550781 54.59375 127.035156 53.148438 126.242188 C 53.195312 126.054688 53.265625 125.867188 53.265625 125.660156 L 53.265625 119.925781 L 59.207031 115.964844 C 59.859375 115.523438 60.257812 114.800781 60.257812 114.03125 L 60.257812 109.371094 L 74.238281 109.371094 L 74.238281 121.023438 C 74.238281 121.230469 74.308594 121.417969 74.355469 121.605469 C 72.910156 122.398438 71.910156 123.910156 71.910156 125.683594 C 71.910156 128.246094 74.007812 130.34375 76.570312 130.34375 C 79.132812 130.34375 81.230469 128.246094 81.230469 125.683594 C 81.230469 123.910156 80.230469 122.398438 78.785156 121.605469 C 78.832031 121.417969 78.898438 121.230469 78.898438 121.023438 L 78.898438 109.371094 L 92.882812 109.371094 L 92.882812 114.03125 C 92.882812 114.800781 93.277344 115.546875 93.929688 115.964844 L 99.875 119.925781 L 99.875 125.660156 C 99.875 125.867188 99.945312 126.054688 99.988281 126.242188 C 98.546875 127.035156 97.542969 128.550781 97.542969 130.320312 C 97.542969 132.882812 99.640625 134.980469 102.203125 134.980469 C 104.765625 134.980469 106.863281 132.882812 106.863281 130.320312 C 106.863281 128.550781 105.863281 127.035156 104.417969 126.242188 C 104.464844 126.054688 104.535156 125.867188 104.535156 125.660156 L 104.535156 118.667969 C 104.535156 117.898438 104.136719 117.152344 103.484375 116.734375 L 97.542969 112.773438 L 97.542969 109.371094 L 113.855469 109.371094 C 115.136719 109.371094 116.1875 108.320312 116.1875 107.039062 L 116.1875 90.726562 L 119.589844 90.726562 L 123.550781 96.667969 C 123.992188 97.320312 124.714844 97.71875 125.484375 97.71875 L 132.476562 97.71875 C 132.683594 97.71875 132.871094 97.648438 133.058594 97.601562 C 133.851562 99.046875 135.363281 100.046875 137.136719 100.046875 C 139.699219 100.046875 141.796875 97.953125 141.796875 95.386719 C 141.796875 92.824219 139.699219 90.726562 137.136719 90.726562 Z M 106.839844 100.046875 L 105.511719 100.046875 L 98.03125 88.398438 L 90.550781 76.746094 L 84.65625 85.925781 L 93.722656 100.046875 L 88.175781 100.046875 L 77.710938 83.734375 L 67.25 67.421875 L 46.320312 100.046875 L 46.253906 100.046875 L 46.253906 39.460938 L 106.839844 39.460938 Z M 106.839844 100.046875 " fill-opacity="1" fill-rule="nonzero"/></g><g fill="#000000" fill-opacity="1"><g transform="translate(167.034032, 85.759539)"><g><path d="M 13.242188 -32.3125 L 3.613281 -32.3125 L 3.613281 0 L 13.242188 0 C 34.75 0 34.75 -32.3125 13.242188 -32.3125 Z M 13.242188 -25.847656 C 25.804688 -25.847656 25.804688 -6.460938 13.242188 -6.460938 L 10.078125 -6.460938 L 10.078125 -25.847656 Z M 13.242188 -25.847656 "/></g></g></g><g fill="#000000" fill-opacity="1"><g transform="translate(198.847878, 85.759539)"><g><path d="M 19.703125 0 L 27.023438 0 L 19.523438 -13.332031 C 29.011719 -16.085938 27.882812 -32.3125 16.359375 -32.3125 L 3.613281 -32.3125 L 3.613281 0 L 10.078125 0 L 10.078125 -12.335938 L 13.195312 -12.335938 Z M 10.078125 -18.617188 L 10.078125 -25.847656 L 15.769531 -25.847656 C 20.15625 -25.847656 20.15625 -18.617188 15.769531 -18.617188 Z M 10.078125 -18.617188 "/></g></g></g><g fill="#000000" fill-opacity="1"><g transform="translate(226.549422, 85.759539)"><g><path d="M 20.335938 0 L 20.335938 -6.460938 L 10.078125 -6.460938 L 10.078125 -12.925781 L 18.574219 -12.925781 L 18.574219 -19.386719 L 10.078125 -19.386719 L 10.078125 -25.847656 L 19.792969 -25.847656 L 19.792969 -32.3125 L 3.613281 -32.3125 L 3.613281 0 Z M 20.335938 0 "/></g></g></g><g fill="#000000" fill-opacity="1"><g transform="translate(249.325246, 85.759539)"><g><path d="M 0.722656 0 L 8.042969 0 L 9.308594 -3.480469 L 20.019531 -3.480469 L 21.328125 0 L 28.605469 0 L 15.003906 -33.484375 L 14.324219 -33.484375 Z M 11.660156 -9.535156 L 14.6875 -17.941406 L 17.625 -9.535156 Z M 11.660156 -9.535156 "/></g></g></g><g fill="#000000" fill-opacity="1"><g transform="translate(278.834401, 85.759539)"><g><path d="M 18.4375 -18.617188 L 5.695312 -32.808594 L 3.613281 -32.808594 L 3.613281 0 L 10.167969 0 L 10.167969 -18.03125 L 18.4375 -9.355469 L 26.707031 -18.03125 L 26.664062 0 L 33.214844 0 L 33.214844 -32.808594 L 31.179688 -32.808594 Z M 18.4375 -18.617188 "/></g></g></g><g fill="#000000" fill-opacity="1"><g transform="translate(315.709545, 85.759539)"><g><path d="M 20.335938 0 L 20.335938 -6.460938 L 10.078125 -6.460938 L 10.078125 -12.925781 L 18.574219 -12.925781 L 18.574219 -19.386719 L 10.078125 -19.386719 L 10.078125 -25.847656 L 19.792969 -25.847656 L 19.792969 -32.3125 L 3.613281 -32.3125 L 3.613281 0 Z M 20.335938 0 "/></g></g></g><g fill="#000000" fill-opacity="1"><g transform="translate(338.485369, 85.759539)"><g><path d="M 19.703125 0 L 27.023438 0 L 19.523438 -13.332031 C 29.011719 -16.085938 27.882812 -32.3125 16.359375 -32.3125 L 3.613281 -32.3125 L 3.613281 0 L 10.078125 0 L 10.078125 -12.335938 L 13.195312 -12.335938 Z M 10.078125 -18.617188 L 10.078125 -25.847656 L 15.769531 -25.847656 C 20.15625 -25.847656 20.15625 -18.617188 15.769531 -18.617188 Z M 10.078125 -18.617188 "/></g></g></g><g fill="#000000" fill-opacity="1"><g transform="translate(366.186913, 85.759539)"><g><path d="M 4.972656 -6.960938 C 0.0898438 -6.960938 0.0898438 0.316406 4.972656 0.316406 C 9.804688 0.316406 9.941406 -6.960938 4.972656 -6.960938 Z M 4.972656 -6.960938 "/></g></g></g><g fill="#000000" fill-opacity="1"><g transform="translate(377.213306, 85.759539)"><g><path d="M 0.722656 0 L 8.042969 0 L 9.308594 -3.480469 L 20.019531 -3.480469 L 21.328125 0 L 28.605469 0 L 15.003906 -33.484375 L 14.324219 -33.484375 Z M 11.660156 -9.535156 L 14.6875 -17.941406 L 17.625 -9.535156 Z M 11.660156 -9.535156 "/></g></g></g><g fill="#000000" fill-opacity="1"><g transform="translate(406.722461, 85.759539)"><g><path d="M 10.078125 0 L 10.078125 -32.3125 L 3.613281 -32.3125 L 3.613281 0 Z M 10.078125 0 "/></g></g></g><g mask="url(#2a22d5fefc)"><g transform="matrix(1, 0, 0, 1, 0, 4)"><g clip-path="url(#ce23906d09)"><path fill="#000000" d="M 74.570312 54.101562 C 74.570312 54.40625 74.542969 54.710938 74.480469 55.011719 C 74.421875 55.3125 74.332031 55.601562 74.214844 55.886719 C 74.097656 56.167969 73.957031 56.4375 73.785156 56.691406 C 73.617188 56.945312 73.421875 57.179688 73.207031 57.398438 C 72.988281 57.613281 72.753906 57.808594 72.5 57.976562 C 72.246094 58.148438 71.976562 58.289062 71.695312 58.40625 C 71.410156 58.523438 71.121094 58.613281 70.820312 58.671875 C 70.519531 58.734375 70.214844 58.761719 69.910156 58.761719 C 69.605469 58.761719 69.300781 58.734375 69 58.671875 C 68.703125 58.613281 68.410156 58.523438 68.128906 58.40625 C 67.84375 58.289062 67.574219 58.148438 67.320312 57.976562 C 67.066406 57.808594 66.832031 57.613281 66.613281 57.398438 C 66.398438 57.179688 66.207031 56.945312 66.035156 56.691406 C 65.867188 56.4375 65.722656 56.167969 65.605469 55.886719 C 65.488281 55.601562 65.398438 55.3125 65.339844 55.011719 C 65.28125 54.710938 65.25 54.40625 65.25 54.101562 C 65.25 53.796875 65.28125 53.492188 65.339844 53.191406 C 65.398438 52.894531 65.488281 52.601562 65.605469 52.320312 C 65.722656 52.035156 65.867188 51.765625 66.035156 51.511719 C 66.207031 51.257812 66.398438 51.023438 66.613281 50.804688 C 66.832031 50.589844 67.066406 50.398438 67.320312 50.226562 C 67.574219 50.058594 67.84375 49.914062 68.128906 49.796875 C 68.410156 49.679688 68.703125 49.589844 69 49.53125 C 69.300781 49.472656 69.605469 49.441406 69.910156 49.441406 C 70.214844 49.441406 70.519531 49.472656 70.820312 49.53125 C 71.121094 49.589844 71.410156 49.679688 71.695312 49.796875 C 71.976562 49.914062 72.246094 50.058594 72.5 50.226562 C 72.753906 50.398438 72.988281 50.589844 73.207031 50.804688 C 73.421875 51.023438 73.617188 51.257812 73.785156 51.511719 C 73.957031 51.765625 74.097656 52.035156 74.214844 52.320312 C 74.332031 52.601562 74.421875 52.894531 74.480469 53.191406 C 74.542969 53.492188 74.570312 53.796875 74.570312 54.101562 Z M 74.570312 54.101562 " fill-opacity="1" fill-rule="nonzero"/><g clip-path="url(#559a509c01)"><path fill="#000000" d="M 125.839844 86.726562 C 124.066406 86.726562 122.554688 87.730469 121.761719 89.175781 C 121.574219 89.128906 121.386719 89.058594 121.179688 89.058594 L 115.445312 89.058594 L 111.484375 83.113281 C 111.042969 82.460938 110.320312 82.066406 109.550781 82.066406 L 104.890625 82.066406 L 104.890625 68.085938 L 116.542969 68.085938 C 116.75 68.085938 116.9375 68.015625 117.125 67.96875 C 117.917969 69.414062 119.429688 70.414062 121.203125 70.414062 C 123.765625 70.414062 125.863281 68.316406 125.863281 65.753906 C 125.863281 63.191406 123.765625 61.09375 121.203125 61.09375 C 119.429688 61.09375 117.917969 62.09375 117.125 63.539062 C 116.9375 63.492188 116.75 63.421875 116.542969 63.421875 L 104.890625 63.421875 L 104.890625 49.441406 L 109.550781 49.441406 C 110.320312 49.441406 111.066406 49.046875 111.484375 48.394531 L 115.445312 42.449219 L 121.179688 42.449219 C 121.386719 42.449219 121.574219 42.378906 121.761719 42.332031 C 122.554688 43.777344 124.066406 44.78125 125.839844 44.78125 C 128.402344 44.78125 130.5 42.683594 130.5 40.121094 C 130.5 37.554688 128.402344 35.460938 125.839844 35.460938 C 124.066406 35.460938 122.554688 36.460938 121.761719 37.90625 C 121.574219 37.859375 121.386719 37.789062 121.179688 37.789062 L 114.1875 37.789062 C 113.417969 37.789062 112.671875 38.1875 112.253906 38.839844 L 108.292969 44.78125 L 104.890625 44.78125 L 104.890625 28.46875 C 104.890625 27.1875 103.839844 26.136719 102.558594 26.136719 L 86.246094 26.136719 L 86.246094 22.734375 L 92.1875 18.773438 C 92.839844 18.332031 93.238281 17.609375 93.238281 16.839844 L 93.238281 9.847656 C 93.238281 9.640625 93.167969 9.453125 93.121094 9.265625 C 94.566406 8.472656 95.566406 6.960938 95.566406 5.1875 C 95.566406 2.625 93.46875 0.527344 90.90625 0.527344 C 88.34375 0.527344 86.246094 2.625 86.246094 5.1875 C 86.246094 6.960938 87.25 8.472656 88.695312 9.265625 C 88.648438 9.453125 88.578125 9.640625 88.578125 9.847656 L 88.578125 15.582031 L 82.632812 19.542969 C 81.980469 19.984375 81.585938 20.707031 81.585938 21.476562 L 81.585938 26.136719 L 67.605469 26.136719 L 67.605469 14.484375 C 67.605469 14.277344 67.535156 14.089844 67.488281 13.902344 C 68.933594 13.109375 69.933594 11.597656 69.933594 9.824219 C 69.933594 7.261719 67.835938 5.164062 65.273438 5.164062 C 62.710938 5.164062 60.613281 7.261719 60.613281 9.824219 C 60.613281 11.597656 61.613281 13.109375 63.058594 13.902344 C 63.011719 14.089844 62.941406 14.277344 62.941406 14.484375 L 62.941406 26.136719 L 48.960938 26.136719 L 48.960938 21.476562 C 48.960938 20.707031 48.566406 19.960938 47.914062 19.542969 L 41.96875 15.582031 L 41.96875 9.847656 C 41.96875 9.640625 41.898438 9.453125 41.851562 9.265625 C 43.296875 8.472656 44.300781 6.960938 44.300781 5.1875 C 44.300781 2.625 42.203125 0.527344 39.640625 0.527344 C 37.074219 0.527344 34.980469 2.625 34.980469 5.1875 C 34.980469 6.960938 35.980469 8.472656 37.425781 9.265625 C 37.378906 9.453125 37.308594 9.640625 37.308594 9.847656 L 37.308594 16.839844 C 37.308594 17.609375 37.707031 18.355469 38.359375 18.773438 L 44.300781 22.734375 L 44.300781 26.136719 L 27.988281 26.136719 C 26.707031 26.136719 25.65625 27.1875 25.65625 28.46875 L 25.65625 44.78125 L 22.253906 44.78125 L 18.292969 38.839844 C 17.851562 38.1875 17.128906 37.789062 16.359375 37.789062 L 9.367188 37.789062 C 9.160156 37.789062 8.972656 37.859375 8.785156 37.90625 C 7.992188 36.460938 6.476562 35.460938 4.707031 35.460938 C 2.144531 35.460938 0.046875 37.554688 0.046875 40.121094 C 0.046875 42.683594 2.144531 44.78125 4.707031 44.78125 C 6.476562 44.78125 7.992188 43.777344 8.785156 42.332031 C 8.972656 42.378906 9.160156 42.449219 9.367188 42.449219 L 15.101562 42.449219 L 19.0625 48.394531 C 19.503906 49.046875 20.226562 49.441406 20.996094 49.441406 L 25.65625 49.441406 L 25.65625 63.421875 L 14.003906 63.421875 C 13.796875 63.421875 13.609375 63.492188 13.421875 63.539062 C 12.628906 62.09375 11.117188 61.09375 9.34375 61.09375 C 6.78125 61.09375 4.683594 63.191406 4.683594 65.753906 C 4.683594 68.316406 6.78125 70.414062 9.34375 70.414062 C 11.117188 70.414062 12.628906 69.414062 13.421875 67.96875 C 13.609375 68.015625 13.796875 68.085938 14.003906 68.085938 L 25.65625 68.085938 L 25.65625 82.066406 L 20.996094 82.066406 C 20.226562 82.066406 19.480469 82.460938 19.0625 83.113281 L 15.101562 89.058594 L 9.367188 89.058594 C 9.160156 89.058594 8.972656 89.128906 8.785156 89.175781 C 7.992188 87.730469 6.476562 86.726562 4.707031 86.726562 C 2.144531 86.726562 0.046875 88.824219 0.046875 91.386719 C 0.046875 93.953125 2.144531 96.046875 4.707031 96.046875 C 6.476562 96.046875 7.992188 95.046875 8.785156 93.601562 C 8.972656 93.648438 9.160156 93.71875 9.367188 93.71875 L 16.359375 93.71875 C 17.128906 93.71875 17.875 93.320312 18.292969 92.667969 L 22.253906 86.726562 L 25.65625 86.726562 L 25.65625 103.039062 C 25.65625 104.320312 26.707031 105.371094 27.988281 105.371094 L 44.300781 105.371094 L 44.300781 108.773438 L 38.359375 112.734375 C 37.707031 113.175781 37.308594 113.898438 37.308594 114.667969 L 37.308594 121.660156 C 37.308594 121.867188 37.378906 122.054688 37.425781 122.242188 C 35.980469 123.035156 34.980469 124.550781 34.980469 126.320312 C 34.980469 128.882812 37.074219 130.980469 39.640625 130.980469 C 42.203125 130.980469 44.300781 128.882812 44.300781 126.320312 C 44.300781 124.550781 43.296875 123.035156 41.851562 122.242188 C 41.898438 122.054688 41.96875 121.867188 41.96875 121.660156 L 41.96875 115.925781 L 47.914062 111.964844 C 48.566406 111.523438 48.960938 110.800781 48.960938 110.03125 L 48.960938 105.371094 L 62.941406 105.371094 L 62.941406 117.023438 C 62.941406 117.230469 63.011719 117.417969 63.058594 117.605469 C 61.613281 118.398438 60.613281 119.910156 60.613281 121.683594 C 60.613281 124.246094 62.710938 126.34375 65.273438 126.34375 C 67.835938 126.34375 69.933594 124.246094 69.933594 121.683594 C 69.933594 119.910156 68.933594 118.398438 67.488281 117.605469 C 67.535156 117.417969 67.605469 117.230469 67.605469 117.023438 L 67.605469 105.371094 L 81.585938 105.371094 L 81.585938 110.03125 C 81.585938 110.800781 81.980469 111.546875 82.632812 111.964844 L 88.578125 115.925781 L 88.578125 121.660156 C 88.578125 121.867188 88.648438 122.054688 88.695312 122.242188 C 87.25 123.035156 86.246094 124.550781 86.246094 126.320312 C 86.246094 128.882812 88.34375 130.980469 90.90625 130.980469 C 93.46875 130.980469 95.566406 128.882812 95.566406 126.320312 C 95.566406 124.550781 94.566406 123.035156 93.121094 122.242188 C 93.167969 122.054688 93.238281 121.867188 93.238281 121.660156 L 93.238281 114.667969 C 93.238281 113.898438 92.839844 113.152344 92.1875 112.734375 L 86.246094 108.773438 L 86.246094 105.371094 L 102.558594 105.371094 C 103.839844 105.371094 104.890625 104.320312 104.890625 103.039062 L 104.890625 86.726562 L 108.292969 86.726562 L 112.253906 92.667969 C 112.695312 93.320312 113.417969 93.71875 114.1875 93.71875 L 121.179688 93.71875 C 121.386719 93.71875 121.574219 93.648438 121.761719 93.601562 C 122.554688 95.046875 124.066406 96.046875 125.839844 96.046875 C 128.402344 96.046875 130.5 93.953125 130.5 91.386719 C 130.5 88.824219 128.402344 86.726562 125.839844 86.726562 Z M 95.542969 96.046875 L 94.214844 96.046875 L 86.734375 84.398438 L 79.253906 72.746094 L 73.359375 81.925781 L 82.425781 96.046875 L 76.878906 96.046875 L 66.414062 79.734375 L 55.953125 63.421875 L 35.023438 96.046875 L 34.957031 96.046875 L 34.957031 35.460938 L 95.542969 35.460938 Z M 95.542969 96.046875 " fill-opacity="1" fill-rule="nonzero"/></g></g></g></g><g mask="url(#8898da66d2)"><g transform="matrix(1, 0, 0, 1, 157, 51)"><g clip-path="url(#6dc47a7cf3)"><g fill="#000000" fill-opacity="1"><g transform="translate(0.516914, 34.759538)"><g><path d="M 13.242188 -32.3125 L 3.613281 -32.3125 L 3.613281 0 L 13.242188 0 C 34.75 0 34.75 -32.3125 13.242188 -32.3125 Z M 13.242188 -25.847656 C 25.804688 -25.847656 25.804688 -6.460938 13.242188 -6.460938 L 10.078125 -6.460938 L 10.078125 -25.847656 Z M 13.242188 -25.847656 "/></g></g></g><g fill="#000000" fill-opacity="1"><g transform="translate(32.33076, 34.759538)"><g><path d="M 19.703125 0 L 27.023438 0 L 19.523438 -13.332031 C 29.011719 -16.085938 27.882812 -32.3125 16.359375 -32.3125 L 3.613281 -32.3125 L 3.613281 0 L 10.078125 0 L 10.078125 -12.335938 L 13.195312 -12.335938 Z M 10.078125 -18.617188 L 10.078125 -25.847656 L 15.769531 -25.847656 C 20.15625 -25.847656 20.15625 -18.617188 15.769531 -18.617188 Z M 10.078125 -18.617188 "/></g></g></g><g fill="#000000" fill-opacity="1"><g transform="translate(60.032304, 34.759538)"><g><path d="M 20.335938 0 L 20.335938 -6.460938 L 10.078125 -6.460938 L 10.078125 -12.925781 L 18.574219 -12.925781 L 18.574219 -19.386719 L 10.078125 -19.386719 L 10.078125 -25.847656 L 19.792969 -25.847656 L 19.792969 -32.3125 L 3.613281 -32.3125 L 3.613281 0 Z M 20.335938 0 "/></g></g></g><g fill="#000000" fill-opacity="1"><g transform="translate(82.808127, 34.759538)"><g><path d="M 0.722656 0 L 8.042969 0 L 9.308594 -3.480469 L 20.019531 -3.480469 L 21.328125 0 L 28.605469 0 L 15.003906 -33.484375 L 14.324219 -33.484375 Z M 11.660156 -9.535156 L 14.6875 -17.941406 L 17.625 -9.535156 Z M 11.660156 -9.535156 "/></g></g></g><g fill="#000000" fill-opacity="1"><g transform="translate(112.317282, 34.759538)"><g><path d="M 18.4375 -18.617188 L 5.695312 -32.808594 L 3.613281 -32.808594 L 3.613281 0 L 10.167969 0 L 10.167969 -18.03125 L 18.4375 -9.355469 L 26.707031 -18.03125 L 26.664062 0 L 33.214844 0 L 33.214844 -32.808594 L 31.179688 -32.808594 Z M 18.4375 -18.617188 "/></g></g></g><g fill="#000000" fill-opacity="1"><g transform="translate(149.192426, 34.759538)"><g><path d="M 20.335938 0 L 20.335938 -6.460938 L 10.078125 -6.460938 L 10.078125 -12.925781 L 18.574219 -12.925781 L 18.574219 -19.386719 L 10.078125 -19.386719 L 10.078125 -25.847656 L 19.792969 -25.847656 L 19.792969 -32.3125 L 3.613281 -32.3125 L 3.613281 0 Z M 20.335938 0 "/></g></g></g><g fill="#000000" fill-opacity="1"><g transform="translate(171.96825, 34.759538)"><g><path d="M 19.703125 0 L 27.023438 0 L 19.523438 -13.332031 C 29.011719 -16.085938 27.882812 -32.3125 16.359375 -32.3125 L 3.613281 -32.3125 L 3.613281 0 L 10.078125 0 L 10.078125 -12.335938 L 13.195312 -12.335938 Z M 10.078125 -18.617188 L 10.078125 -25.847656 L 15.769531 -25.847656 C 20.15625 -25.847656 20.15625 -18.617188 15.769531 -18.617188 Z M 10.078125 -18.617188 "/></g></g></g><g fill="#000000" fill-opacity="1"><g transform="translate(199.669794, 34.759538)"><g><path d="M 4.972656 -6.960938 C 0.0898438 -6.960938 0.0898438 0.316406 4.972656 0.316406 C 9.804688 0.316406 9.941406 -6.960938 4.972656 -6.960938 Z M 4.972656 -6.960938 "/></g></g></g><g fill="#000000" fill-opacity="1"><g transform="translate(210.696187, 34.759538)"><g><path d="M 0.722656 0 L 8.042969 0 L 9.308594 -3.480469 L 20.019531 -3.480469 L 21.328125 0 L 28.605469 0 L 15.003906 -33.484375 L 14.324219 -33.484375 Z M 11.660156 -9.535156 L 14.6875 -17.941406 L 17.625 -9.535156 Z M 11.660156 -9.535156 "/></g></g></g><g fill="#000000" fill-opacity="1"><g transform="translate(240.205342, 34.759538)"><g><path d="M 10.078125 0 L 10.078125 -32.3125 L 3.613281 -32.3125 L 3.613281 0 Z M 10.078125 0 "/></g></g></g></g></g></g></svg>